<?xml version="1.0" encoding="iso-8859-1"?>
<!-- Generator: Adobe Illustrator 19.0.0, SVG Export Plug-In . SVG Version: 6.00 Build 0)  -->
<svg height="512" width="512" version="1.1" id="Capa_1" xmlns="http://www.w3.org/2000/svg" xmlns:xlink="http://www.w3.org/1999/xlink" x="0px" y="0px"
	 viewBox="0 0 512 512" style="enable-background:new 0 0 512 512;" xml:space="preserve">
<g>
	<g>
		<path d="M505.805,17.049l-2.195-8.66l-8.66-2.195c-1.433-0.363-35.627-8.853-81.911-5.346
			c-61.686,4.677-115.805,28.663-156.507,69.366L137.447,189.299l82.02,82.02l112.71-112.71l21.214,21.214l-112.71,112.71
			l82.02,82.02l119.085-119.085c40.703-40.703,64.689-94.822,69.366-156.507C514.661,52.674,506.168,18.482,505.805,17.049z"/>
	</g>
</g>
<g>
	<g>
		<polygon points="219.433,313.78 240.681,292.532 219.467,271.318 198.219,292.566 150.825,245.173 129.611,266.386 
			150.851,287.626 45.825,392.651 119.348,466.174 224.373,361.148 245.613,382.388 266.827,361.174 		"/>
	</g>
</g>
<g>
	<g>
		<path d="M24.613,413.865l-9.409,9.409c-20.271,20.27-20.271,53.252,0,73.522c10.136,10.136,23.446,15.203,36.761,15.203
			c13.312,0,26.627-5.068,36.761-15.203l9.409-9.409L24.613,413.865z"/>
	</g>
</g>
<g>
</g>
<g>
</g>
<g>
</g>
<g>
</g>
<g>
</g>
<g>
</g>
<g>
</g>
<g>
</g>
<g>
</g>
<g>
</g>
<g>
</g>
<g>
</g>
<g>
</g>
<g>
</g>
<g>
</g>
</svg>
